<svg xmlns="http://www.w3.org/2000/svg" viewBox="0 0 24 24" role="img" aria-label="LinkedIn" fill="currentColor">
  <path d="M20.447 20.452H17.21v-5.569c0-1.328-.027-3.037-1.852-3.037-1.853 0-2.136 1.446-2.136 2.94v5.666H9V9h3.11v1.561h.044c.433-.82 1.494-1.685 3.073-1.685 3.287 0 3.894 2.164 3.894 4.977v6.599zM5.337 7.433A1.813 1.813 0 1 1 5.337 3.807a1.813 1.813 0 0 1 0 3.626zM6.956 20.452H3.717V9h3.239v11.452zM22.225 0H1.771C.792 0 0 .774 0 1.727v20.545C0 23.227.792 24 1.771 24h20.451C23.2 24 24 23.227 24 22.273V1.727C24 .774 23.2 0 22.222 0h.003z"/>
</svg>
